<svg width="1024" height="1024" viewBox="0 0 1024 1024" fill="none" xmlns="http://www.w3.org/2000/svg">
  <defs>
    <linearGradient id="bg" x1="160" y1="120" x2="880" y2="920" gradientUnits="userSpaceOnUse">
      <stop stop-color="#11161D"/>
      <stop offset="1" stop-color="#05070B"/>
    </linearGradient>
    <linearGradient id="accent" x1="320" y1="280" x2="720" y2="760" gradientUnits="userSpaceOnUse">
      <stop stop-color="#61F4FF"/>
      <stop offset="1" stop-color="#2AB7FF"/>
    </linearGradient>
    <filter id="shadow" x="0" y="0" width="1024" height="1024" filterUnits="userSpaceOnUse" color-interpolation-filters="sRGB">
      <feDropShadow dx="0" dy="24" stdDeviation="28" flood-color="#000000" flood-opacity="0.45"/>
    </filter>
  </defs>
  <rect x="72" y="72" width="880" height="880" rx="220" fill="url(#bg)"/>
  <rect x="72" y="72" width="880" height="880" rx="220" stroke="#FFFFFF" stroke-opacity="0.06" stroke-width="2"/>
  <g filter="url(#shadow)">
    <path d="M322 246L643 508L492 538L434 682L383 664L444 520L322 246Z" fill="white"/>
    <path d="M330 263L606 488L473 515L419 645L387 633L446 517L330 263Z" fill="#DDE8FF"/>
    <path d="M353 294L582 482L480 503L440 600L415 592L456 501L353 294Z" fill="url(#accent)" opacity="0.95"/>
  </g>
  <g filter="url(#shadow)">
    <rect x="560" y="300" width="210" height="82" rx="28" fill="#141A23" stroke="#61F4FF" stroke-opacity="0.55" stroke-width="3"/>
    <rect x="560" y="412" width="260" height="82" rx="28" fill="#141A23" stroke="#61F4FF" stroke-opacity="0.55" stroke-width="3"/>
    <rect x="560" y="524" width="180" height="82" rx="28" fill="#141A23" stroke="#61F4FF" stroke-opacity="0.55" stroke-width="3"/>
    <circle cx="604" cy="341" r="16" fill="url(#accent)"/>
    <circle cx="604" cy="453" r="16" fill="url(#accent)"/>
    <circle cx="604" cy="565" r="16" fill="url(#accent)"/>
  </g>
  <path d="M642 692C642 719 664 741 691 741C718 741 740 719 740 692C740 665 718 643 691 643C664 643 642 665 642 692Z" fill="url(#accent)"/>
  <path d="M691 642C690 610 671 582 641 566" stroke="rgba(97,244,255,0.9)" stroke-width="18" stroke-linecap="round"/>
</svg>
